<mxfile host="app.diagrams.net" modified="2021-09-18T00:14:26.023Z" agent="5.0 (Windows NT 10.0; Win64; x64) AppleWebKit/537.36 (KHTML, like Gecko) Chrome/93.0.4577.82 Safari/537.36" etag="RUIITFpLdQaSfNNG8PbQ" version="14.8.2" type="github">
  <diagram id="uLprhSBzqI0fS_mTSiTb" name="Page-1">
    <mxGraphModel dx="1038" dy="489" grid="1" gridSize="10" guides="1" tooltips="1" connect="1" arrows="1" fold="1" page="1" pageScale="1" pageWidth="827" pageHeight="1169" math="0" shadow="0">
      <root>
        <mxCell id="0" />
        <mxCell id="1" parent="0" />
        <mxCell id="eA-eHSo0_HScx8mSf3mj-7" value="" style="ellipse;html=1;shape=startState;fillColor=#000000;strokeColor=#ff0000;" vertex="1" parent="1">
          <mxGeometry x="80" y="80" width="30" height="30" as="geometry" />
        </mxCell>
        <mxCell id="eA-eHSo0_HScx8mSf3mj-8" value="" style="edgeStyle=orthogonalEdgeStyle;html=1;verticalAlign=bottom;endArrow=open;endSize=8;strokeColor=#ff0000;" edge="1" source="eA-eHSo0_HScx8mSf3mj-7" parent="1">
          <mxGeometry relative="1" as="geometry">
            <mxPoint x="170" y="95" as="targetPoint" />
          </mxGeometry>
        </mxCell>
        <mxCell id="eA-eHSo0_HScx8mSf3mj-9" value="" style="rounded=1;whiteSpace=wrap;html=1;" vertex="1" parent="1">
          <mxGeometry x="170" y="65" width="120" height="60" as="geometry" />
        </mxCell>
        <mxCell id="eA-eHSo0_HScx8mSf3mj-24" style="edgeStyle=orthogonalEdgeStyle;rounded=0;orthogonalLoop=1;jettySize=auto;html=1;" edge="1" parent="1" source="eA-eHSo0_HScx8mSf3mj-10">
          <mxGeometry relative="1" as="geometry">
            <mxPoint x="444" y="310" as="targetPoint" />
          </mxGeometry>
        </mxCell>
        <mxCell id="eA-eHSo0_HScx8mSf3mj-10" value="" style="rhombus;whiteSpace=wrap;html=1;" vertex="1" parent="1">
          <mxGeometry x="379" y="44" width="130" height="111" as="geometry" />
        </mxCell>
        <mxCell id="eA-eHSo0_HScx8mSf3mj-11" value="" style="rounded=1;whiteSpace=wrap;html=1;" vertex="1" parent="1">
          <mxGeometry x="389" y="200" width="120" height="60" as="geometry" />
        </mxCell>
        <mxCell id="eA-eHSo0_HScx8mSf3mj-12" value="Entrar no APP" style="text;html=1;strokeColor=none;fillColor=none;align=center;verticalAlign=middle;whiteSpace=wrap;rounded=0;" vertex="1" parent="1">
          <mxGeometry x="200" y="85" width="40" height="20" as="geometry" />
        </mxCell>
        <mxCell id="eA-eHSo0_HScx8mSf3mj-13" value="" style="endArrow=classic;html=1;" edge="1" parent="1">
          <mxGeometry width="50" height="50" relative="1" as="geometry">
            <mxPoint x="290" y="100" as="sourcePoint" />
            <mxPoint x="380" y="100" as="targetPoint" />
          </mxGeometry>
        </mxCell>
        <mxCell id="eA-eHSo0_HScx8mSf3mj-14" value="Possui cadastro" style="text;html=1;strokeColor=none;fillColor=none;align=center;verticalAlign=middle;whiteSpace=wrap;rounded=0;" vertex="1" parent="1">
          <mxGeometry x="424" y="90" width="40" height="20" as="geometry" />
        </mxCell>
        <mxCell id="eA-eHSo0_HScx8mSf3mj-15" value="" style="endArrow=classic;html=1;" edge="1" parent="1">
          <mxGeometry width="50" height="50" relative="1" as="geometry">
            <mxPoint x="509" y="99.5" as="sourcePoint" />
            <mxPoint x="599" y="99.5" as="targetPoint" />
          </mxGeometry>
        </mxCell>
        <mxCell id="eA-eHSo0_HScx8mSf3mj-16" value="" style="rounded=1;whiteSpace=wrap;html=1;" vertex="1" parent="1">
          <mxGeometry x="600" y="70" width="120" height="60" as="geometry" />
        </mxCell>
        <mxCell id="eA-eHSo0_HScx8mSf3mj-17" value="Fazer login" style="text;html=1;strokeColor=none;fillColor=none;align=center;verticalAlign=middle;whiteSpace=wrap;rounded=0;" vertex="1" parent="1">
          <mxGeometry x="640" y="89.5" width="40" height="20" as="geometry" />
        </mxCell>
        <mxCell id="eA-eHSo0_HScx8mSf3mj-18" value="SIM" style="text;html=1;strokeColor=none;fillColor=none;align=center;verticalAlign=middle;whiteSpace=wrap;rounded=0;" vertex="1" parent="1">
          <mxGeometry x="509" y="80" width="40" height="20" as="geometry" />
        </mxCell>
        <mxCell id="eA-eHSo0_HScx8mSf3mj-19" value="" style="endArrow=classic;html=1;exitX=0.5;exitY=1;exitDx=0;exitDy=0;" edge="1" parent="1" source="eA-eHSo0_HScx8mSf3mj-10">
          <mxGeometry width="50" height="50" relative="1" as="geometry">
            <mxPoint x="443.5" y="160" as="sourcePoint" />
            <mxPoint x="443.5" y="200" as="targetPoint" />
          </mxGeometry>
        </mxCell>
        <mxCell id="eA-eHSo0_HScx8mSf3mj-20" value="NÃO" style="text;html=1;strokeColor=none;fillColor=none;align=center;verticalAlign=middle;whiteSpace=wrap;rounded=0;" vertex="1" parent="1">
          <mxGeometry x="450" y="170" width="40" height="20" as="geometry" />
        </mxCell>
        <mxCell id="eA-eHSo0_HScx8mSf3mj-22" value="Realizar cadastro" style="text;html=1;strokeColor=none;fillColor=none;align=center;verticalAlign=middle;whiteSpace=wrap;rounded=0;" vertex="1" parent="1">
          <mxGeometry x="424" y="220" width="40" height="20" as="geometry" />
        </mxCell>
        <mxCell id="eA-eHSo0_HScx8mSf3mj-25" value="" style="rounded=1;whiteSpace=wrap;html=1;" vertex="1" parent="1">
          <mxGeometry x="389" y="310" width="120" height="60" as="geometry" />
        </mxCell>
        <mxCell id="eA-eHSo0_HScx8mSf3mj-26" value="Text" style="text;html=1;strokeColor=none;fillColor=none;align=center;verticalAlign=middle;whiteSpace=wrap;rounded=0;" vertex="1" parent="1">
          <mxGeometry x="390" y="210" width="40" height="20" as="geometry" />
        </mxCell>
        <mxCell id="eA-eHSo0_HScx8mSf3mj-27" value="Preencher nome completo" style="text;html=1;strokeColor=none;fillColor=none;align=center;verticalAlign=middle;whiteSpace=wrap;rounded=0;" vertex="1" parent="1">
          <mxGeometry x="424" y="330" width="40" height="20" as="geometry" />
        </mxCell>
        <mxCell id="eA-eHSo0_HScx8mSf3mj-29" value="" style="rounded=1;whiteSpace=wrap;html=1;" vertex="1" parent="1">
          <mxGeometry x="389" y="415" width="120" height="60" as="geometry" />
        </mxCell>
        <mxCell id="eA-eHSo0_HScx8mSf3mj-31" value="" style="endArrow=classic;html=1;entryX=0.5;entryY=0;entryDx=0;entryDy=0;" edge="1" parent="1" source="eA-eHSo0_HScx8mSf3mj-25" target="eA-eHSo0_HScx8mSf3mj-29">
          <mxGeometry width="50" height="50" relative="1" as="geometry">
            <mxPoint x="390" y="430" as="sourcePoint" />
            <mxPoint x="440" y="380" as="targetPoint" />
          </mxGeometry>
        </mxCell>
        <mxCell id="eA-eHSo0_HScx8mSf3mj-32" value="Preencher endereço" style="text;html=1;strokeColor=none;fillColor=none;align=center;verticalAlign=middle;whiteSpace=wrap;rounded=0;" vertex="1" parent="1">
          <mxGeometry x="429" y="435" width="40" height="20" as="geometry" />
        </mxCell>
        <mxCell id="eA-eHSo0_HScx8mSf3mj-33" value="" style="rounded=1;whiteSpace=wrap;html=1;" vertex="1" parent="1">
          <mxGeometry x="390" y="520" width="120" height="60" as="geometry" />
        </mxCell>
        <mxCell id="eA-eHSo0_HScx8mSf3mj-34" value="" style="endArrow=classic;html=1;entryX=0.5;entryY=0;entryDx=0;entryDy=0;" edge="1" parent="1" target="eA-eHSo0_HScx8mSf3mj-33">
          <mxGeometry width="50" height="50" relative="1" as="geometry">
            <mxPoint x="450" y="475" as="sourcePoint" />
            <mxPoint x="441" y="485" as="targetPoint" />
          </mxGeometry>
        </mxCell>
        <mxCell id="eA-eHSo0_HScx8mSf3mj-35" value="Preencher idade" style="text;html=1;strokeColor=none;fillColor=none;align=center;verticalAlign=middle;whiteSpace=wrap;rounded=0;" vertex="1" parent="1">
          <mxGeometry x="429" y="540" width="40" height="20" as="geometry" />
        </mxCell>
        <mxCell id="eA-eHSo0_HScx8mSf3mj-36" value="" style="rounded=1;whiteSpace=wrap;html=1;" vertex="1" parent="1">
          <mxGeometry x="389" y="625" width="120" height="60" as="geometry" />
        </mxCell>
        <mxCell id="eA-eHSo0_HScx8mSf3mj-37" value="" style="endArrow=classic;html=1;entryX=0.5;entryY=0;entryDx=0;entryDy=0;" edge="1" parent="1" target="eA-eHSo0_HScx8mSf3mj-36">
          <mxGeometry width="50" height="50" relative="1" as="geometry">
            <mxPoint x="449" y="580" as="sourcePoint" />
            <mxPoint x="440" y="590" as="targetPoint" />
          </mxGeometry>
        </mxCell>
        <mxCell id="eA-eHSo0_HScx8mSf3mj-38" value="Preencher telefone" style="text;html=1;strokeColor=none;fillColor=none;align=center;verticalAlign=middle;whiteSpace=wrap;rounded=0;" vertex="1" parent="1">
          <mxGeometry x="430" y="645" width="40" height="20" as="geometry" />
        </mxCell>
        <mxCell id="eA-eHSo0_HScx8mSf3mj-39" value="" style="rounded=1;whiteSpace=wrap;html=1;" vertex="1" parent="1">
          <mxGeometry x="389" y="730" width="120" height="60" as="geometry" />
        </mxCell>
        <mxCell id="eA-eHSo0_HScx8mSf3mj-40" value="" style="endArrow=classic;html=1;entryX=0.5;entryY=0;entryDx=0;entryDy=0;" edge="1" parent="1" target="eA-eHSo0_HScx8mSf3mj-39">
          <mxGeometry width="50" height="50" relative="1" as="geometry">
            <mxPoint x="449" y="685" as="sourcePoint" />
            <mxPoint x="440" y="695" as="targetPoint" />
          </mxGeometry>
        </mxCell>
        <mxCell id="eA-eHSo0_HScx8mSf3mj-41" value="Preencher e-mail" style="text;html=1;strokeColor=none;fillColor=none;align=center;verticalAlign=middle;whiteSpace=wrap;rounded=0;" vertex="1" parent="1">
          <mxGeometry x="430" y="750" width="40" height="20" as="geometry" />
        </mxCell>
        <mxCell id="eA-eHSo0_HScx8mSf3mj-42" value="" style="rounded=1;whiteSpace=wrap;html=1;" vertex="1" parent="1">
          <mxGeometry x="390" y="835" width="120" height="60" as="geometry" />
        </mxCell>
        <mxCell id="eA-eHSo0_HScx8mSf3mj-43" value="" style="endArrow=classic;html=1;entryX=0.5;entryY=0;entryDx=0;entryDy=0;" edge="1" parent="1" target="eA-eHSo0_HScx8mSf3mj-42">
          <mxGeometry width="50" height="50" relative="1" as="geometry">
            <mxPoint x="450" y="790" as="sourcePoint" />
            <mxPoint x="441" y="800" as="targetPoint" />
          </mxGeometry>
        </mxCell>
        <mxCell id="eA-eHSo0_HScx8mSf3mj-44" value="senha" style="text;html=1;strokeColor=none;fillColor=none;align=center;verticalAlign=middle;whiteSpace=wrap;rounded=0;" vertex="1" parent="1">
          <mxGeometry x="430" y="855" width="40" height="20" as="geometry" />
        </mxCell>
        <mxCell id="eA-eHSo0_HScx8mSf3mj-45" value="" style="rounded=1;whiteSpace=wrap;html=1;" vertex="1" parent="1">
          <mxGeometry x="389" y="940" width="120" height="60" as="geometry" />
        </mxCell>
        <mxCell id="eA-eHSo0_HScx8mSf3mj-46" value="" style="endArrow=classic;html=1;entryX=0.5;entryY=0;entryDx=0;entryDy=0;" edge="1" parent="1" target="eA-eHSo0_HScx8mSf3mj-45">
          <mxGeometry width="50" height="50" relative="1" as="geometry">
            <mxPoint x="449" y="895" as="sourcePoint" />
            <mxPoint x="440" y="905" as="targetPoint" />
          </mxGeometry>
        </mxCell>
        <mxCell id="eA-eHSo0_HScx8mSf3mj-47" value="Concluir cadastro" style="text;html=1;strokeColor=none;fillColor=none;align=center;verticalAlign=middle;whiteSpace=wrap;rounded=0;" vertex="1" parent="1">
          <mxGeometry x="424" y="960" width="40" height="20" as="geometry" />
        </mxCell>
        <mxCell id="eA-eHSo0_HScx8mSf3mj-48" value="" style="endArrow=classic;html=1;entryX=0.5;entryY=0;entryDx=0;entryDy=0;" edge="1" parent="1" target="eA-eHSo0_HScx8mSf3mj-49">
          <mxGeometry width="50" height="50" relative="1" as="geometry">
            <mxPoint x="448.5" y="1000" as="sourcePoint" />
            <mxPoint x="448.5" y="1045" as="targetPoint" />
          </mxGeometry>
        </mxCell>
        <mxCell id="eA-eHSo0_HScx8mSf3mj-49" value="" style="ellipse;html=1;shape=endState;fillColor=#000000;strokeColor=#ff0000;" vertex="1" parent="1">
          <mxGeometry x="433.5" y="1030" width="30" height="30" as="geometry" />
        </mxCell>
      </root>
    </mxGraphModel>
  </diagram>
</mxfile>
